HIERARCHY
ROOT Hips
{
	OFFSET 0.00000 0.00000 0.00000
	CHANNELS 6 Xposition Yposition Zposition Zrotation Yrotation Xrotation 
	JOINT LHipJoint
	{
		OFFSET 0 0 0
		CHANNELS 3 Zrotation Yrotation Xrotation
		JOINT LeftHip
		{
			OFFSET 1.57338 -1.94743 0.52196
			CHANNELS 3 Zrotation Yrotation Xrotation
			JOINT LeftKnee
			{
				OFFSET 2.60333 -7.15259 0.00000
				CHANNELS 3 Zrotation Yrotation Xrotation
				JOINT LeftAnkle
				{
					OFFSET 2.77855 -7.63400 0.00000
					CHANNELS 3 Zrotation Yrotation Xrotation
					JOINT LeftToe
					{
						OFFSET 0.19847 -0.54529 2.28466
						CHANNELS 3 Zrotation Yrotation Xrotation
						End Site
						{
							OFFSET 0.00000 -0.00000 1.17993
						}
					}
				}
			}
		}
	}
	JOINT RHipJoint
	{
		OFFSET 0 0 0
		CHANNELS 3 Zrotation Yrotation Xrotation
		JOINT RightHip
		{
			OFFSET -1.61527 -1.94743 0.52196
			CHANNELS 3 Zrotation Yrotation Xrotation
			JOINT RightKnee
			{
				OFFSET -2.53829 -6.97390 0.00000
				CHANNELS 3 Zrotation Yrotation Xrotation
				JOINT RightAnkle
				{
					OFFSET -2.80762 -7.71387 0.00000
					CHANNELS 3 Zrotation Yrotation Xrotation
					JOINT RightToe
					{
						OFFSET -0.30536 -0.83898 2.28801
						CHANNELS 3 Zrotation Yrotation Xrotation
						End Site
						{
							OFFSET -0.00000 -0.00000 1.21323
						}
					}
				}
			}
		}
	}
	JOINT lowerback
	{
		OFFSET 0 0 0
		CHANNELS 3 Zrotation Yrotation Xrotation
		JOINT Chest
		{
			OFFSET -0.04381 1.99497 -0.19778
			CHANNELS 3 Zrotation Yrotation Xrotation
			JOINT Chest2
			{
				OFFSET -0.01959 2.01295 -0.04372
				CHANNELS 3 Zrotation Yrotation Xrotation
				JOINT lowerneck
				{
					OFFSET 0 0 0
					CHANNELS 3 Zrotation Yrotation Xrotation
					JOINT Neck
					{
						OFFSET -0.05459 1.76913 0.09708
						CHANNELS 3 Zrotation Yrotation Xrotation
						JOINT Head
						{
							OFFSET 0.09461 1.77368 -0.11172
							CHANNELS 3 Zrotation Yrotation Xrotation
							End Site
							{
								OFFSET 0.03812 1.78157 -0.04834
							}
						}
					}
				}
				JOINT LeftCollar
				{
					OFFSET 0 0 0
					CHANNELS 3 Zrotation Yrotation Xrotation
					JOINT LeftShoulder
					{
						OFFSET 3.50922 1.24034 -0.28866
CHANNELS 3 Zrotation Xrotation Yrotation
						JOINT LeftElbow
						{
OFFSET 0 -5.401880 0.000000
CHANNELS 3 Zrotation Xrotation Yrotation
							JOINT LeftWrist
							{
OFFSET 0 -3.685590 0.000000
CHANNELS 3 Zrotation Xrotation Yrotation
								JOINT lhand
								{
									OFFSET 0 0 0
CHANNELS 3 Zrotation Xrotation Yrotation
									JOINT LFingers
									{
OFFSET 0 -0.617530 0.000000
CHANNELS 3 Zrotation Xrotation Yrotation
										End Site
										{
OFFSET 0 -0.497870 0.000000
										}
									}
								}
								JOINT LThumb
								{
OFFSET 0 0.000000 0.000000
CHANNELS 3 Zrotation Xrotation Yrotation
									End Site
									{
OFFSET 0 -0.505470 0.505470
									}
								}
							}
						}
					}
				}
				JOINT RightCollar
				{
					OFFSET 0 0 0
					CHANNELS 3 Zrotation Yrotation Xrotation
					JOINT RightShoulder
					{
						OFFSET -2.95373 1.39649 -0.27346
CHANNELS 3 Zrotation Xrotation Yrotation
						JOINT RightElbow
						{
OFFSET 0 -6.106700 -0.000000
CHANNELS 3 Zrotation Xrotation Yrotation
							JOINT RightWrist
							{
OFFSET 0 -3.630520 0.000000
CHANNELS 3 Zrotation Xrotation Yrotation
								JOINT rhand
								{
									OFFSET 0 0 0
CHANNELS 3 Zrotation Xrotation Yrotation
									JOINT RFingers
									{
OFFSET 0 -0.583850 0.000000
CHANNELS 3 Zrotation Xrotation Yrotation
										End Site
										{
OFFSET 0 -0.470710 0.000000
										}
									}
								}
								JOINT RThumb
								{
OFFSET 0 0.000000 0.000000
CHANNELS 3 Zrotation Xrotation Yrotation
									End Site
									{
OFFSET 0 -0.477900 0.477900
									}
								}
							}
						}
					}
				}
			}
		}
	}
}
MOTION
Frames: 5
Frame Time: 0.008333333333333333
0.590900 18.265000 -3.640900 6.604000 -67.154100 -8.800100 0.000000 0.000000 0.000000 -8.825600 -4.800400 -14.826900 5.229900 13.638100 41.806500 0.211200 4.197100 -11.259600 0.284900 -3.433000 -9.486600 0.000000 0.000000 0.000000 17.679000 14.279200 -5.276900 -5.208500 -13.614800 41.715700 -1.681200 -4.224700 -26.316600 -0.246400 3.194200 -8.820000 -0.941200 2.679000 3.849200 -1.654500 3.498000 1.478000 -1.317700 1.740500 -0.590700 -4.998200 7.262800 -4.535000 11.626400 7.994500 21.971400 5.113200 4.303100 6.659500 0.000000 -0.000000 0.000000 30.887400 -29.843800 -19.902600 155.774700 -35.401600 112.163300 26.790500 -12.151400 -15.363500 0.000000 0.000000 0.000000 -7.125000 0.000000 0.000000 -0.806200 47.086400 0.041500 0.000000 -0.000000 0.000000 -12.560700 -34.519900 47.818900 -139.909500 -48.123400 -101.493400 -26.025500 -19.432000 -8.991100 0.000000 0.000000 0.000000 7.125000 0.000000 -0.000000 0.641600 19.993800 0.383600
0.685528 17.955548 -3.526986 8.089973 -68.957793 -10.501457 0.000000 0.000000 0.000000 -9.780992 -4.298589 -14.901637 5.774493 14.206190 44.069909 0.594045 3.395951 -16.189823 0.656070 -5.179903 -14.422494 0.000000 0.000000 0.000000 16.733108 15.724560 -7.889378 -6.463370 -14.862789 46.814263 -2.097867 -2.952748 -28.550903 -0.252046 3.230393 -8.920793 -1.519708 2.941196 5.089984 -1.638106 3.784946 1.476513 -1.062791 1.880614 -1.317572 -5.507691 6.948118 -5.147097 11.490747 7.814242 20.400012 5.097129 4.194950 6.267111 0.000000 0.000000 0.000000 29.757892 -29.979220 -22.178248 156.560568 -34.565912 112.613831 30.005908 -6.242098 -14.758721 0.000000 0.000000 0.000000 -7.125000 0.000000 0.000000 2.353432 46.886500 -0.109649 0.000000 0.000000 0.000000 -13.291040 -35.181274 44.778902 -144.303214 -45.303248 -104.693360 -26.314535 -19.137164 -8.332886 0.000000 0.000000 0.000000 7.125000 0.000000 0.000000 0.401050 20.699487 0.233410
0.792015 17.644655 -3.354705 8.876137 -70.519913 -12.212192 0.000000 0.000000 0.000000 -10.611044 -3.652489 -14.415082 6.315643 14.727409 46.235639 1.128007 2.624791 -21.166116 0.915312 -6.095756 -17.062627 0.000000 0.000000 0.000000 16.052136 16.641555 -9.148508 -7.555421 -15.782240 50.944870 -2.486455 -1.644964 -30.453477 -0.250812 3.222673 -8.899306 -1.382807 3.059212 6.894772 -1.391697 3.902931 1.807149 -0.988387 1.933995 -1.988332 -5.528981 6.686209 -5.918615 10.548328 7.795817 18.787423 4.762902 4.144159 5.947355 0.000000 0.000000 0.000000 25.780084 -26.841842 -26.034122 157.850717 -33.145278 113.332683 29.618178 -4.259192 -12.808007 0.000000 0.000000 0.000000 -7.125000 0.000000 0.000000 2.155089 44.624231 0.019895 0.000000 0.000000 0.000000 -13.471281 -34.651579 43.250378 -148.301698 -42.305246 -107.462659 -27.079110 -20.717284 -8.217193 0.000000 0.000000 0.000000 7.125000 0.000000 0.000000 -0.156113 20.767287 -0.090617
0.899307 17.441797 -3.168491 8.284302 -70.690031 -12.198572 0.000000 0.000000 0.000000 -11.124335 -4.138524 -14.666049 6.796417 15.158047 48.100173 1.485987 2.522474 -24.056692 1.079990 -6.605475 -18.551531 0.000000 0.000000 0.000000 15.383952 16.700913 -9.632169 -8.040964 -16.149274 52.710166 -2.742711 -0.570415 -31.587926 -0.296276 3.500259 -9.674829 -1.250395 2.797261 8.314657 -0.877683 3.540450 2.240902 -0.564549 1.746748 -2.354463 -4.621435 6.798010 -7.139204 9.138289 8.199027 17.793217 4.207639 4.327926 5.934109 0.000000 0.000000 0.000000 19.568265 -21.057554 -30.990544 158.482289 -32.427709 113.674769 29.458132 0.100867 -11.124156 0.000000 0.000000 0.000000 -7.125000 0.000000 0.000000 2.124987 42.695468 0.120808 0.000000 0.000000 0.000000 -13.723312 -32.068588 41.921937 -151.120677 -39.913107 -109.316808 -26.868827 -23.142446 -8.521367 0.000000 0.000000 0.000000 7.125000 0.000000 0.000000 0.011891 20.444989 0.006962
0.960792 17.499104 -2.966678 7.154268 -70.725343 -10.630978 0.000000 0.000000 0.000000 -11.585008 -3.028207 -14.883228 6.426596 14.829315 46.670666 1.547452 2.954705 -24.721094 1.143383 -6.790124 -19.095070 0.000000 0.000000 0.000000 15.078512 17.240305 -9.080184 -7.621510 -15.833645 51.187522 -2.613458 -1.231413 -31.059767 -0.376891 3.942993 -10.916399 -0.674212 2.475015 8.213329 -0.607170 3.169735 2.412085 -0.559634 1.560277 -2.105306 -4.511082 6.977208 -7.216759 8.979186 8.535490 16.510890 4.107477 4.497956 5.537305 0.000000 0.000000 0.000000 15.848693 -16.052603 -32.386952 158.268256 -32.672550 113.559608 28.294143 2.398821 -10.255235 0.000000 0.000000 0.000000 -7.125000 0.000000 0.000000 1.129875 41.588238 0.095195 0.000000 0.000000 0.000000 -13.097327 -27.245307 41.832433 -152.649388 -38.511496 -110.283346 -26.465392 -23.661888 -8.948287 0.000000 0.000000 0.000000 7.125000 0.000000 0.000000 0.324334 20.003967 0.193828
